<svg width="1581" height="503" viewBox="0 0 1581 503" fill="none" xmlns="http://www.w3.org/2000/svg">
<path d="M1119.23 366.844C1133.82 366.844 1145.98 379.388 1145.98 394.44C1145.98 409.995 1133.82 422.538 1119.23 422.538C1104.16 422.538 1092 409.995 1092 394.44C1092 379.388 1104.16 366.844 1119.23 366.844Z" fill="#F8F7F2"></path>
<path fill-rule="evenodd" clip-rule="evenodd" d="M1275.06 156.144C1309.91 156.144 1335.54 169.832 1353.21 189.951V162.758L1395.73 160.202V416.197H1353.21V386.447C1335.54 406.566 1309.91 420.255 1275.06 420.255C1205.31 420.255 1160.07 361.205 1160.07 288.199C1160.07 215.194 1205.31 156.144 1275.06 156.144ZM1277.5 197.866C1255.56 197.866 1237.13 206.625 1224.09 222.031C1210.99 237.52 1203 260.136 1203 288.199C1203 316.263 1210.99 338.88 1224.09 354.368C1237.13 369.775 1255.56 378.533 1277.5 378.533C1300.44 378.533 1319.16 369.38 1332.25 353.779C1345.43 338.082 1353.21 315.454 1353.21 288.199C1353.21 260.944 1345.43 238.317 1332.25 222.62C1319.16 207.02 1300.44 197.866 1277.5 197.866Z" fill="#F8F7F2"></path>
<path d="M1497.22 416.197H1454.69L1455.38 162.758L1497.22 160.203V416.197Z" fill="#F8F7F2"></path>
<path d="M1476.6 80.0083C1490.15 80.3507 1501 91.4128 1501 105.046L1500.99 105.693C1500.65 119.028 1489.94 129.748 1476.6 130.085L1475.96 130.093C1462.33 130.093 1451.27 119.243 1450.92 105.693L1450.92 105.046C1450.92 91.1966 1462.11 80.0001 1475.96 80L1476.6 80.0083Z" fill="#F8F7F2"></path>
<g filter="url(#filter0_d_512_385)">
<path d="M811.702 156.992C821.934 155.598 834.47 157.947 843.387 163.072C876.631 182.179 870.551 230.889 870.51 263.196L870.441 343.137C870.441 359.83 870.368 373.426 871.999 373.551C873.63 373.677 880.926 360.749 883.688 354.27C900.115 315.728 908.055 277.128 918.445 239.747C925.886 215.854 930.831 190.668 947.791 171.866C965.771 151.941 1000.26 151.843 1019.08 170.032C1037.74 188.072 1036.94 213.89 1036.85 237.486L1036.78 274.227V417.966H992.801C991.747 355.869 993.368 283.882 992.835 221.733C992.789 216.408 993.009 208.414 990.849 203.511C989.923 201.405 988.203 199.751 986.061 198.914C972.285 193.672 965.534 232.216 962.835 241.502C949.917 286.878 945.108 327.85 923.856 377.034C919.334 387.502 907.632 403.694 900.115 410.598C867.433 440.616 825.821 411.928 825.821 354.27C825.821 296.613 826.189 264.726 825.821 221.868C825.775 216.543 825.995 208.549 823.835 203.646C823.812 203.593 823.786 203.542 823.762 203.489C823.7 203.358 823.636 203.229 823.571 203.101C822.601 201.256 821.001 199.813 819.047 199.05C809.631 195.372 796.557 236.871 793.858 246.157C780.94 291.533 774.451 324.055 753.199 374.375C743.13 398.218 730.128 417.604 705.034 417.604C680.639 417.604 664.68 393.25 664.68 393.25C617.429 439.094 529.98 431.023 496.395 370.03C468.331 322.334 457.87 273.075 421.184 229.345C356.84 152.645 247.267 199.577 247.267 288.133C247.267 319.505 261.497 343.126 281.787 360.263C296.807 372.949 317.491 382.273 343.185 382.509C373.976 382.791 399.514 368.135 414.333 350.874C428.065 334.88 435.271 319.93 438.061 302.048C438.144 301.512 438.23 301.287 438.604 301.232C439.054 301.167 439.195 301.596 439.42 302.048C446.722 316.738 462 349.334 462 349.334C462 349.334 457.56 361.282 450.627 369.305C423.165 401.087 390.952 421.372 345.557 422.316C332.312 422.591 322.368 420.998 311.301 418.687C286.051 418.687 265.258 418.687 265.258 418.687C265.258 418.687 143.711 418.687 129.194 418.687C73.1479 418.687 80.2957 373.197 80.2948 328.248L80.3604 164.624L123.504 167.006C124.552 225.316 124.133 297.026 124.133 355.347C124.133 367.511 129.194 376.782 149.673 376.782C177.565 376.782 218.11 376.782 239.889 376.782C219.072 349.557 205.483 325.303 205.483 281.278C207.358 235.784 228.558 201.139 257.281 178.994C286.004 156.323 317.098 148.036 350.3 149.469C411.435 152.106 464.101 198.239 475.584 257.026L475.657 166.899L520.032 164.889C520.032 164.889 520.132 262.333 520.132 291.109C520.132 306.854 523.247 319.555 529.993 335.564C530.953 337.843 531.709 339.134 532.903 341.187C535.973 346.464 538.591 350.456 541.633 354.153C553.009 367.979 570.542 379.308 592.861 378.035C609.095 377.108 625.96 368.244 637.733 354.021C652.35 335.432 659.162 311.881 659.116 291.109C658.971 277.827 659.088 272.753 659.093 259.457L659.168 165.123L703.64 167.49C703.64 167.49 703.642 300.249 703.651 306.481C703.66 312.713 703.696 319.31 703.696 325.684V359.83C703.696 359.83 703.696 371.394 705.034 373.367C706.373 375.339 714.723 356.74 715.704 354.27C733.1 310.463 741.693 267.66 755.937 224.693C761.489 205.669 767.387 186.845 780.777 172C785.613 166.642 791.644 162.718 798.243 160.198C802.277 158.621 806.742 157.523 811.702 156.992Z" fill="#F8F7F2"></path>
</g>
<defs>
<filter id="filter0_d_512_385" x="25" y="94.3125" width="1066.88" height="383.352" filterUnits="userSpaceOnUse" color-interpolation-filters="sRGB">
<feFlood flood-opacity="0" result="BackgroundImageFix"></feFlood>
<feColorMatrix in="SourceAlpha" type="matrix" values="0 0 0 0 0 0 0 0 0 0 0 0 0 0 0 0 0 0 127 0" result="hardAlpha"></feColorMatrix>
<feOffset></feOffset>
<feGaussianBlur stdDeviation="12"></feGaussianBlur>
<feComposite in2="hardAlpha" operator="out"></feComposite>
<feColorMatrix type="matrix" values="0 0 0 0 1 0 0 0 0 1 0 0 0 0 1 0 0 0 0.45 0"></feColorMatrix>
<feBlend mode="normal" in2="BackgroundImageFix" result="effect1_dropShadow_512_385"></feBlend>
<feBlend mode="normal" in="SourceGraphic" in2="effect1_dropShadow_512_385" result="shape"></feBlend>
</filter>
</defs>
</svg>