<svg width="346" height="191" viewBox="0 0 346 191" fill="none" xmlns="http://www.w3.org/2000/svg">
<path d="M315.105 11.06L315.053 77.0525C315.049 86.3537 314.968 89.903 315.068 99.1949C315.1 113.726 310.369 130.201 300.217 143.205C292.04 153.155 280.327 159.356 269.051 160.004C253.55 160.895 241.373 152.97 233.471 143.298C231.358 140.711 229.54 137.919 227.408 134.227L227.378 134.176C226.566 132.77 226.046 131.869 225.387 130.294C220.701 119.094 218.538 110.209 218.538 99.1949C218.538 79.064 218.468 10.8965 218.468 10.8965L187.648 12.3025L187.597 75.352C179.621 34.2269 143.042 1.95406 100.582 0.109523C77.5212 -0.89271 55.9248 4.90454 35.9756 20.764C16.0265 36.2557 1.30218 60.4917 0 92.3174C0 123.116 5.54166 138.457 23.8971 159.129C41.8019 179.293 70.4281 191.544 97.2873 190.981C128.816 190.321 151.19 176.131 170.263 153.897C175.078 148.285 178.162 139.927 178.162 139.927C178.162 139.927 167.551 117.124 162.479 106.847C162.323 106.531 162.225 106.231 161.913 106.277C161.653 106.315 161.594 106.472 161.535 106.847C159.598 119.356 154.593 129.815 145.056 141.004C134.763 153.079 117.025 163.331 95.6402 163.134C77.7945 162.969 63.4286 156.447 52.9965 147.572C38.904 135.584 29.0209 119.06 29.0209 97.1127C29.0209 35.1632 105.124 2.33151 149.814 55.9877C175.294 86.5793 182.56 121.039 202.051 154.405C225.378 197.073 289.29 202.172 318.933 170.648C336.674 151.781 346 130.294 346 93.3909C346 89.0314 345.992 12.7159 345.992 12.7159L315.105 11.06Z" fill="white"></path>
</svg>