<svg width="77" height="52" viewBox="0 0 77 52" fill="none" xmlns="http://www.w3.org/2000/svg">
<mask id="mask0_8907_6372" style="mask-type:alpha" maskUnits="userSpaceOnUse" x="12" y="11" width="53" height="30">
<path d="M60.0003 12.686L59.9923 22.7459C59.9917 24.1638 59.9794 24.7049 59.9946 26.1213C59.9995 28.3365 59.2788 30.8479 57.7324 32.8303C56.4867 34.3471 54.7025 35.2923 52.9848 35.3911C50.6235 35.5269 48.7686 34.3188 47.5649 32.8444C47.243 32.4501 46.9661 32.0245 46.6413 31.4617L46.6367 31.4539C46.513 31.2395 46.4338 31.1022 46.3334 30.8621C45.6196 29.1548 45.2901 27.8003 45.2901 26.1213C45.2901 23.0526 45.2794 12.6611 45.2794 12.6611L40.5846 12.8754L40.5768 22.4867C39.3618 16.2176 33.7897 11.2979 27.3218 11.0167C23.8089 10.8639 20.5191 11.7477 17.4802 14.1653C14.4413 16.5268 12.1984 20.2214 12 25.0729C12 29.7679 12.8442 32.1065 15.6403 35.2577C18.3677 38.3315 22.7284 40.1991 26.8199 40.1133C31.6227 40.0127 35.0309 37.8495 37.9363 34.4602C38.6698 33.6047 39.1396 32.3306 39.1396 32.3306C39.1396 32.3306 37.5232 28.8545 36.7506 27.2878C36.7268 27.2397 36.7119 27.1939 36.6644 27.2009C36.6248 27.2067 36.6158 27.2307 36.6068 27.2878C36.3117 29.1947 35.5493 30.7891 34.0965 32.4947C32.5286 34.3355 29.8265 35.8983 26.569 35.8683C23.8505 35.8431 21.6621 34.8489 20.073 33.496C17.9263 31.6685 16.4208 29.1496 16.4208 25.8039C16.4208 16.3603 28.0136 11.3554 34.8213 19.5348C38.7027 24.1982 39.8095 29.4513 42.7786 34.5376C46.3321 41.0419 56.0678 41.8192 60.5834 37.0137C63.2859 34.1376 64.7065 30.8621 64.7065 25.2366C64.7065 24.572 64.7053 12.9384 64.7053 12.9384L60.0003 12.686Z" fill="white"></path>
</mask>
<g mask="url(#mask0_8907_6372)">
<g filter="url(#filter0_f_8907_6372)" style="mix-blend-mode:difference">
<path d="M60.6028 9.05918C70.0923 9.96197 71.7659 24.3202 62.2444 36.8714C52.7228 49.4226 17.1745 50.4174 9.1654 33.0409C5.44245 24.9636 7.93986 17.477 12.4235 12.5295C15.5513 9.07821 22.4445 7.39512 28.6183 9.05918C33.5618 10.3916 40.5 10.1536 40.5 9.05918C40.5 -4.62101 57.3369 8.74847 60.6028 9.05918Z" fill="url(#paint0_linear_8907_6372)"></path>
</g>
</g>
<defs>
<filter id="filter0_f_8907_6372" x="3.05864" y="-1.39052" width="69.848" height="51.8949" filterUnits="userSpaceOnUse" color-interpolation-filters="sRGB">
<feFlood flood-opacity="0" result="BackgroundImageFix"></feFlood>
<feBlend mode="normal" in="SourceGraphic" in2="BackgroundImageFix" result="shape"></feBlend>
<feGaussianBlur stdDeviation="2.15" result="effect1_foregroundBlur_8907_6372"></feGaussianBlur>
</filter>
<linearGradient id="paint0_linear_8907_6372" x1="66.5" y1="49.5909" x2="44" y2="6.09088" gradientUnits="userSpaceOnUse">
<stop stop-color="#C77DFF"></stop>
<stop offset="0.490596" stop-color="#8A5CFF"></stop>
<stop offset="1" stop-color="#45E08A"></stop>
</linearGradient>
</defs>
</svg>